<?xml version="1.0" standalone="no"?>
<!DOCTYPE svg PUBLIC "-//W3C//DTD SVG 20010904//EN"
 "http://www.w3.org/TR/2001/REC-SVG-20010904/DTD/svg10.dtd">
<svg version="1.0" xmlns="http://www.w3.org/2000/svg"
 width="652.000000pt" height="434.000000pt" viewBox="0 0 652.000000 434.000000"
 preserveAspectRatio="xMidYMid meet">

<g transform="translate(0.000000,434.000000) scale(0.100000,-0.100000)"
fill="#000000" stroke="none">
<path d="M5 4328 c-3 -7 -4 -983 -3 -2168 l3 -2155 3255 0 3255 0 0 2165 0
2165 -3253 3 c-2597 2 -3254 0 -3257 -10z m3101 -1444 c28 -7 47 -44 48 -91
l2 -38 111 -3 110 -3 5 53 c8 82 21 88 190 88 185 0 201 -8 210 -105 3 -30 3
-30 80 -35 111 -7 161 -51 161 -141 0 -88 -64 -139 -175 -139 l-68 0 0 -39 c0
-88 -25 -101 -199 -101 -71 0 -141 4 -154 9 -26 10 -47 55 -47 103 l0 29 -112
-3 -112 -3 -3 -45 c-5 -79 -18 -85 -198 -85 -178 0 -185 3 -195 82 l-5 48 -82
5 c-61 4 -90 11 -110 26 -85 63 -79 186 12 237 11 6 56 14 100 17 l80 5 6 49
c9 79 24 86 188 86 75 0 146 -3 157 -6z m-1610 -789 c10 -8 31 -15 47 -15 25
0 27 -3 27 -40 0 -36 -2 -40 -26 -40 -14 0 -37 9 -51 20 -35 27 -75 25 -106
-5 -28 -29 -37 -67 -25 -113 16 -61 89 -82 132 -39 19 19 28 21 54 15 18 -5
32 -13 32 -18 0 -6 -15 -27 -34 -47 -30 -33 -39 -37 -92 -41 -50 -3 -64 0 -94
20 -76 51 -99 145 -57 228 37 74 141 115 193 75z m350 -6 c83 -40 116 -145 72
-229 -58 -113 -194 -122 -271 -18 -14 18 -22 48 -24 85 -5 72 24 127 82 160
50 28 87 29 141 2z m668 6 c15 -8 39 -15 52 -15 21 0 24 -5 24 -40 0 -38 -2
-40 -31 -40 -17 0 -42 9 -56 20 -44 35 -91 22 -119 -32 -48 -93 57 -197 125
-124 20 21 26 23 56 13 34 -10 34 -10 19 -39 -32 -63 -126 -87 -200 -52 -68
32 -104 140 -73 221 31 83 130 126 203 88z m1296 0 c14 -8 37 -14 53 -15 25 0
27 -3 27 -40 0 -38 -2 -40 -31 -40 -17 0 -42 9 -56 20 -36 28 -70 25 -104 -9
-23 -23 -29 -38 -29 -71 0 -74 75 -125 122 -83 26 23 22 33 -12 33 -27 0 -30
3 -30 30 l0 30 80 0 80 0 0 -90 0 -90 -35 0 c-31 0 -35 3 -35 25 0 25 0 25
-20 5 -63 -63 -178 -22 -216 75 -32 84 2 176 79 214 49 24 92 26 127 6z
m-1600 -130 c26 -81 49 -135 57 -135 8 0 13 -12 13 -30 l0 -30 -65 0 -65 0 0
30 c0 20 5 30 15 30 16 0 19 18 6 38 -5 9 -25 12 -57 10 -42 -3 -49 -6 -52
-25 -2 -16 2 -23 12 -23 11 0 16 -9 16 -30 l0 -30 -65 0 -65 0 0 30 c0 18 5
30 13 30 8 0 31 54 57 135 l44 135 46 0 46 0 44 -135z m580 105 c0 -23 -4 -30
-20 -30 -16 0 -20 -7 -20 -30 l0 -30 75 0 75 0 0 30 c0 20 -5 30 -15 30 -10 0
-15 10 -15 30 l0 30 70 0 70 0 0 -30 c0 -23 -4 -30 -20 -30 -19 0 -20 -7 -20
-101 0 -92 2 -101 20 -106 14 -4 20 -14 20 -34 l0 -29 -70 0 -70 0 0 30 c0 20
5 30 15 30 11 0 15 12 15 45 l0 45 -75 0 -75 0 0 -45 c0 -38 3 -45 20 -45 16
0 20 -7 20 -30 l0 -31 -72 3 c-71 3 -73 4 -76 31 -3 22 1 27 17 27 20 0 21 6
21 104 0 95 -2 104 -20 109 -14 3 -20 14 -20 31 0 26 1 26 75 26 l75 0 0 -30z
m410 0 c0 -23 -4 -30 -20 -30 -19 0 -20 -7 -20 -101 0 -92 2 -101 20 -106 14
-4 20 -14 20 -34 l0 -29 -70 0 -70 0 0 30 c0 20 5 30 15 30 12 0 15 18 15 105
0 87 -3 105 -15 105 -10 0 -15 10 -15 30 l0 30 70 0 70 0 0 -30z m199 -70 c34
-55 64 -100 67 -100 2 0 4 32 4 70 0 56 -3 70 -15 70 -10 0 -15 10 -15 30 l0
30 65 0 65 0 0 -30 c0 -20 -5 -30 -15 -30 -13 0 -15 -22 -15 -135 l0 -135 -35
0 c-34 0 -38 4 -105 108 l-70 107 0 -77 c0 -63 3 -78 15 -78 10 0 15 -10 15
-30 l0 -30 -65 0 -65 0 0 30 c0 20 5 30 15 30 12 0 15 18 15 105 0 87 -3 105
-15 105 -10 0 -15 10 -15 30 0 30 1 30 53 30 l54 0 62 -100z m721 95 c0 -3
-22 -41 -50 -85 -27 -44 -50 -82 -50 -85 0 -3 14 -5 30 -5 27 0 30 3 30 30 0
28 3 30 35 30 32 0 35 -2 35 -29 0 -23 5 -30 23 -33 16 -2 22 -10 22 -28 0
-18 -6 -26 -22 -28 -28 -4 -31 -32 -3 -32 16 0 20 -7 20 -30 l0 -30 -70 0 -70
0 0 30 c0 20 5 30 15 30 8 0 15 7 15 15 0 12 -14 15 -70 15 l-70 0 0 34 c0 23
16 58 56 120 52 80 58 86 90 86 19 0 34 -2 34 -5z m250 -25 c0 -24 -4 -30 -20
-30 -20 0 -21 -5 -18 -102 l3 -103 40 0 c38 0 40 2 43 33 3 29 6 32 38 32 l34
0 0 -65 0 -65 -130 0 -130 0 0 30 c0 20 5 30 15 30 12 0 15 18 15 105 0 87 -3
105 -15 105 -10 0 -15 10 -15 30 l0 30 70 0 70 0 0 -30z m290 0 c0 -20 -5 -30
-15 -30 -12 0 -15 -18 -15 -105 0 -87 3 -105 15 -105 10 0 15 -10 15 -30 l0
-30 -70 0 -70 0 0 30 c0 20 5 30 15 30 12 0 15 18 15 105 0 87 -3 105 -15 105
-10 0 -15 10 -15 30 l0 30 70 0 70 0 0 -30z m290 -25 l0 -55 -35 0 c-31 0 -35
3 -35 26 0 23 -3 25 -37 22 -35 -3 -38 -6 -41 -35 -3 -32 -2 -33 32 -33 34 0
36 -2 36 -35 0 -33 -2 -35 -35 -35 -32 0 -35 -2 -35 -31 0 -22 5 -32 20 -36
14 -4 20 -14 20 -34 l0 -29 -70 0 -70 0 0 30 c0 20 5 30 15 30 12 0 15 18 15
105 0 87 -3 105 -15 105 -10 0 -15 10 -15 30 l0 30 125 0 125 0 0 -55z m290 0
l0 -55 -35 0 c-31 0 -35 3 -35 25 0 23 -4 25 -40 25 -39 0 -40 -1 -40 -35 0
-32 2 -35 30 -35 27 0 30 -3 30 -30 0 -27 -3 -30 -30 -30 -28 0 -30 -2 -30
-40 l0 -40 40 0 c38 0 40 2 40 30 0 28 3 30 35 30 l35 0 0 -60 0 -60 -130 0
-130 0 0 30 c0 20 5 30 15 30 12 0 15 18 15 105 0 87 -3 105 -15 105 -10 0
-15 10 -15 30 l0 30 130 0 130 0 0 -55z m-2185 -395 c15 -6 23 -15 19 -21 -4
-8 -9 -8 -17 0 -6 6 -21 11 -32 11 -50 0 -77 -77 -39 -114 18 -19 65 -21 82
-4 9 9 12 8 12 -4 0 -18 -20 -28 -56 -28 -37 0 -61 16 -72 49 -17 48 1 95 43
111 27 12 30 12 60 0z m255 -49 c0 -37 4 -50 18 -56 16 -6 16 -7 0 -16 -10 -6
-18 -17 -18 -24 0 -8 -4 -15 -10 -15 -5 0 -10 9 -10 20 0 16 -7 20 -30 20 -38
0 -38 15 -2 74 36 60 52 59 52 -3z m200 -21 l0 -70 35 0 c19 0 35 -4 35 -10 0
-5 -20 -10 -45 -10 l-45 0 0 80 c0 47 4 80 10 80 6 0 10 -30 10 -70z"/>
<path d="M2860 2610 l0 -170 95 0 95 0 0 170 0 170 -95 0 -95 0 0 -170z"/>
<path d="M3490 2610 l0 -170 90 0 90 0 0 170 0 170 -90 0 -90 0 0 -170z"/>
<path d="M2626 2637 c-10 -7 -17 -22 -14 -33 3 -16 13 -19 76 -22 l73 -3 -3
33 c-3 33 -4 33 -58 36 -35 2 -62 -2 -74 -11z"/>
<path d="M3193 2643 c-40 -4 -43 -6 -43 -34 l0 -29 115 0 115 0 0 35 0 35 -72
-2 c-40 -1 -92 -3 -115 -5z"/>
<path d="M3780 2615 l0 -35 64 0 c58 0 65 2 72 22 10 31 -19 48 -83 48 l-53 0
0 -35z"/>
<path d="M1733 2025 c-27 -19 -46 -75 -37 -111 11 -47 42 -74 85 -74 50 0 79
35 79 97 0 77 -72 127 -127 88z"/>
<path d="M2106 2003 c-4 -16 -9 -36 -12 -45 -4 -15 1 -18 26 -18 33 0 34 1 9
68 -11 29 -15 28 -23 -5z"/>
<path d="M3265 1580 c-15 -29 -15 -30 5 -30 16 0 20 7 20 30 0 17 -2 30 -5 30
-2 0 -11 -13 -20 -30z"/>
</g>
</svg>
