<?xml version="1.0" standalone="no"?>
<!DOCTYPE svg PUBLIC "-//W3C//DTD SVG 20010904//EN"
 "http://www.w3.org/TR/2001/REC-SVG-20010904/DTD/svg10.dtd">
<svg version="1.0" xmlns="http://www.w3.org/2000/svg"
 width="500.000000pt" height="500.000000pt" viewBox="0 0 500.000000 500.000000"
 preserveAspectRatio="xMidYMid meet">

<g transform="translate(0.000000,500.000000) scale(0.100000,-0.100000)"
fill="#000000" stroke="none">
<path d="M2649 4267 c-19 -12 -45 -44 -58 -71 -26 -52 -25 -68 10 -154 10 -24
11 -37 3 -50 -18 -29 -137 -55 -244 -53 -127 2 -174 -12 -229 -67 -34 -35 -58
-48 -110 -63 -190 -54 -305 -150 -411 -345 -114 -209 -194 -417 -214 -561 -9
-66 15 -55 57 25 20 37 51 85 70 107 l35 40 29 -27 c16 -16 35 -28 41 -28 13
0 12 6 -18 124 -13 49 -15 74 -8 85 5 9 46 45 91 81 123 99 162 136 182 174
17 32 22 34 87 41 102 10 173 31 255 76 40 22 73 36 73 30 0 -5 -27 -34 -61
-63 l-61 -53 7 -48 c3 -26 20 -87 38 -135 30 -81 32 -96 32 -218 l0 -130 -45
-95 c-41 -86 -45 -101 -44 -169 0 -84 16 -125 68 -172 86 -80 167 -103 351
-101 121 1 156 5 255 31 134 35 207 44 270 34 44 -8 43 -8 -32 -14 -56 -5 -94
-15 -142 -37 -68 -33 -92 -56 -232 -230 l-76 -93 -41 5 c-95 13 -141 -21 -151
-111 -5 -47 -53 -203 -80 -262 -5 -13 7 -18 71 -29 58 -10 83 -19 100 -37 13
-14 33 -24 50 -24 15 0 44 -5 64 -10 20 -6 107 -12 193 -13 146 -3 160 -2 199
18 101 53 162 89 165 97 2 4 8 6 13 3 5 -4 7 0 4 7 -2 7 18 28 47 48 160 111
301 247 395 382 103 147 178 338 198 501 3 31 11 57 16 57 6 0 18 8 27 17 23
23 29 213 7 213 -8 0 -15 -3 -16 -7 -6 -74 -19 -95 -19 -33 0 145 -100 468
-179 579 -32 45 -27 78 12 72 10 -2 -29 76 -43 84 -6 4 -10 -17 -10 -57 0 -43
-10 -92 -31 -158 -103 -315 -214 -508 -342 -596 l-48 -34 -67 34 c-103 52
-246 150 -272 186 l-23 32 -37 -37 c-20 -20 -43 -55 -49 -77 -7 -22 -15 -46
-18 -54 -4 -10 3 -14 22 -14 42 0 191 -39 269 -71 162 -68 261 -135 304 -207
23 -40 27 -58 27 -122 0 -52 -6 -85 -18 -108 -18 -34 -178 -157 -397 -307
-169 -115 -264 -187 -397 -302 -63 -54 -75 -61 -100 -54 -15 4 -29 14 -31 23
-2 8 42 54 105 109 116 102 135 117 348 268 229 163 325 234 369 273 40 35 41
38 39 96 -2 91 -26 123 -139 187 -116 66 -251 112 -426 146 -57 10 -58 11 -58
44 0 18 9 64 21 101 19 60 31 78 97 146 41 43 79 78 82 78 4 0 15 -18 25 -39
27 -60 68 -96 196 -172 65 -38 120 -69 124 -69 11 0 76 64 114 114 52 67 91
144 151 297 66 168 83 244 77 344 -6 96 -27 155 -56 155 -22 0 -23 -2 -42
-120 -14 -88 -25 -120 -39 -120 -5 0 -24 16 -41 35 -37 41 -64 47 -53 13 13
-45 54 -129 75 -159 17 -24 19 -35 11 -53 -13 -30 -100 -124 -172 -186 l-59
-51 -11 41 c-12 45 -57 101 -101 127 -21 13 -29 25 -29 46 0 48 -21 106 -50
135 -14 15 -61 55 -103 89 -42 35 -84 74 -93 88 -15 23 -15 28 9 87 l25 63 56
3 55 3 -1 70 c-1 56 2 72 16 82 17 13 17 15 -2 58 -11 24 -23 58 -27 76 -8 38
-48 81 -92 99 -52 22 -144 18 -184 -9z m-251 -395 c6 -18 -15 -14 -22 4 -4 10
-1 14 6 12 6 -2 14 -10 16 -16z m271 -186 c34 -32 70 -97 71 -128 0 -31 -16
-19 -41 30 -13 26 -57 81 -96 122 -40 41 -73 76 -73 77 0 6 107 -72 139 -101z
m223 -98 c39 -11 48 -35 11 -31 -35 4 -74 23 -68 33 8 13 9 13 57 -2z m-467
-130 c55 -80 58 -91 15 -61 -57 39 -100 107 -100 155 1 27 -5 33 85 -94z m275
-172 c0 -31 -25 -36 -81 -19 l-54 17 50 7 c81 10 85 10 85 -5z m70 -51 c19
-20 21 -27 10 -40 -11 -13 -15 -12 -31 9 -20 25 -25 56 -11 56 5 0 19 -11 32
-25z m-120 -109 c0 -41 -11 -45 -48 -20 -20 14 -38 27 -41 30 -2 2 17 4 42 4
34 0 47 -4 47 -14z m-205 -16 c3 -5 1 -10 -4 -10 -6 0 -11 5 -11 10 0 6 2 10
4 10 3 0 8 -4 11 -10z m156 -130 c13 0 19 -7 19 -21 0 -11 -3 -19 -7 -17 -50
24 -63 33 -63 41 0 5 7 6 16 3 9 -3 24 -6 35 -6z m494 -290 c15 -6 25 -13 22
-16 -6 -6 -67 23 -67 32 0 3 4 3 9 0 4 -3 21 -10 36 -16z"/>
<path d="M2448 4233 c-13 -3 -18 -15 -18 -39 0 -32 -2 -34 -35 -34 -76 0 -244
-46 -353 -96 -41 -19 -79 -31 -84 -28 -6 4 -8 2 -5 -4 8 -12 -79 -66 -93 -57
-6 4 -9 1 -8 -5 2 -7 -6 -17 -16 -23 -23 -14 -53 -37 -72 -55 -8 -7 -14 -10
-14 -6 0 4 -46 -40 -102 -96 -57 -57 -102 -106 -101 -110 1 -4 -4 -7 -11 -7
-8 0 -11 8 -9 18 3 10 10 17 17 16 6 -1 11 3 10 8 -1 6 7 18 17 28 11 9 19 14
19 11 0 -4 7 -1 15 6 8 7 12 16 9 21 -3 5 0 8 8 7 7 -2 12 3 10 11 -4 18 39
63 54 57 8 -3 11 2 9 16 -6 27 -15 36 -15 15 0 -10 -4 -17 -9 -17 -17 0 -142
-130 -156 -163 -8 -17 -14 -28 -15 -22 0 12 -80 -107 -103 -154 -9 -18 -14
-38 -10 -44 3 -5 2 -7 -4 -4 -24 15 -116 -233 -139 -377 -19 -114 -21 -312 -5
-391 7 -33 17 -82 23 -110 14 -68 82 -240 102 -260 15 -15 21 -12 17 8 -1 5 3
6 8 3 9 -6 101 -154 101 -163 0 -15 237 -238 290 -273 36 -24 67 -46 70 -49 3
-4 22 -17 42 -31 26 -17 36 -30 32 -42 -8 -27 13 -30 88 -12 62 15 79 16 127
5 117 -27 102 -35 154 77 25 55 49 113 53 129 7 27 -16 8 -201 -159 -6 -6 -5
-12 5 -18 27 -18 -42 -11 -84 8 -47 21 -50 18 92 124 120 90 242 212 327 326
51 68 61 88 47 90 -155 23 -299 78 -350 132 -18 19 -19 18 -74 -68 -31 -48
-73 -118 -93 -157 -70 -131 -99 -180 -137 -238 l-39 -58 -29 23 c-16 13 -29
28 -29 34 -1 6 21 45 47 85 26 41 72 117 102 169 29 52 70 120 90 150 69 102
81 96 -163 92 -116 -2 -262 -1 -324 3 -96 6 -112 9 -116 25 -4 16 5 19 87 25
50 4 202 5 338 3 l247 -3 -7 40 c-4 22 -7 72 -6 110 1 69 26 144 85 257 10 20
19 50 19 66 0 39 -18 42 -227 42 -145 0 -164 2 -159 16 3 8 2 12 -4 9 -6 -3
-10 -1 -10 4 0 7 57 12 168 13 92 1 176 3 187 4 11 1 26 2 33 3 16 1 9 48 -14
95 -8 16 -14 34 -14 40 0 6 -10 48 -22 93 l-22 81 -71 -5 -70 -6 -75 -71 c-41
-39 -93 -84 -115 -101 -92 -70 -87 -62 -74 -140 6 -38 13 -85 16 -103 3 -21
-1 -41 -12 -58 -15 -23 -22 -26 -54 -21 -20 3 -46 9 -58 12 -17 6 -24 1 -37
-27 -28 -58 -89 -130 -141 -165 -44 -31 -50 -33 -61 -18 -41 56 -15 262 57
444 42 104 137 293 187 369 80 123 116 163 198 218 81 54 210 114 246 114 10
0 33 15 51 34 64 65 105 78 276 87 84 5 155 10 157 12 2 2 -1 18 -7 36 -7 21
-9 59 -5 102 6 67 6 69 -16 68 -13 -1 -31 -3 -40 -6z m-932 -595 c-9 -5 -13
-14 -10 -20 4 -7 2 -8 -4 -4 -9 5 -9 12 0 26 7 10 16 16 21 13 5 -3 2 -10 -7
-15z m-51 -77 c3 -5 2 -12 -3 -15 -5 -3 -9 1 -9 9 0 17 3 19 12 6z m-28 -55
c-9 -7 -17 -19 -18 -27 0 -11 -2 -11 -6 -1 -6 14 27 56 36 46 3 -3 -2 -11 -12
-18z m652 -227 c-10 -6 -10 -9 -1 -9 6 0 12 -4 12 -9 0 -12 -221 -13 -239 -1
-34 20 4 30 121 29 75 -1 116 -4 107 -10z m31 -303 c0 -21 -31 -25 -155 -19
-87 5 -115 9 -115 19 0 11 28 14 135 14 108 0 135 -3 135 -14z m-85 -126 c0
-13 -26 -15 -164 -18 -141 -2 -163 0 -158 12 5 12 -5 16 -46 19 -29 2 43 3
158 3 180 -1 210 -3 210 -16z m-15 -140 c0 -30 -21 -34 -138 -24 -124 11 -152
31 -50 37 174 9 188 8 188 -13z m-320 -5 c0 -10 -10 -15 -30 -15 -29 0 -38 9
-23 23 13 13 53 7 53 -8z m-280 -11 c0 -2 -7 -4 -15 -4 -8 0 -15 4 -15 10 0 5
7 7 15 4 8 -4 15 -8 15 -10z m143 -276 c-2 -5 -3 -12 -3 -18 0 -5 -16 -10 -35
-10 -24 0 -37 6 -45 19 -14 28 -15 27 38 21 26 -3 46 -8 45 -12z m397 10 c-1
-38 -15 -42 -166 -40 -81 1 -152 6 -156 10 -5 5 -6 16 -2 25 5 15 26 17 165
17 121 0 159 -3 159 -12z m-97 -158 c-10 -39 -27 -43 -159 -37 -105 5 -128 9
-140 24 -7 10 -14 21 -14 26 0 4 72 7 159 7 153 0 159 -1 154 -20z"/>
<path d="M1768 2853 c7 -3 16 -2 19 1 4 3 -2 6 -13 5 -11 0 -14 -3 -6 -6z"/>
<path d="M3000 4163 c0 -10 9 -38 20 -62 24 -52 26 -87 4 -95 -12 -5 -14 -14
-9 -46 8 -45 -9 -108 -34 -127 -9 -7 -33 -13 -54 -13 -31 0 -39 -4 -47 -26
-13 -33 -12 -33 70 -99 38 -30 83 -70 100 -88 29 -31 70 -121 70 -155 0 -9 23
-38 51 -64 l50 -46 42 45 c69 75 69 75 48 119 -19 40 -45 125 -54 179 -9 49 5
60 71 60 l59 0 11 60 c6 33 14 72 18 88 5 21 3 27 -10 27 -10 0 -15 4 -11 9 3
5 2 12 -3 15 -13 8 -11 -28 2 -36 6 -4 8 -9 5 -12 -6 -7 -63 22 -87 45 -12 10
-26 19 -31 19 -5 0 -13 5 -17 12 -4 6 -3 8 3 5 5 -3 10 0 10 8 0 11 -5 12 -20
3 -14 -7 -17 -7 -13 1 4 6 0 11 -9 11 -10 0 -13 5 -9 12 5 7 3 8 -5 4 -7 -5
-19 0 -27 10 -9 11 -13 13 -9 7 11 -22 -14 -14 -25 7 -6 11 -15 18 -20 15 -19
-12 -40 8 -40 40 0 45 -34 85 -71 85 -21 0 -29 -5 -29 -17z"/>
<path d="M1736 3921 c-4 -5 -2 -12 3 -15 5 -4 12 -2 15 3 4 5 2 12 -3 15 -5 4
-12 2 -15 -3z"/>
<path d="M1647 3823 c-4 -3 -7 -11 -7 -17 0 -6 5 -5 12 2 6 6 9 14 7 17 -3 3
-9 2 -12 -2z"/>
<path d="M2665 2372 c-24 -3 -38 -15 -70 -65 -22 -34 -41 -65 -43 -69 -6 -14
15 -8 34 10 45 43 117 122 113 124 -2 2 -17 2 -34 0z"/>
<path d="M3311 1373 c-1 -6 -4 -20 -7 -30 -5 -17 -5 -17 6 0 6 10 9 23 6 30
-3 9 -5 9 -5 0z"/>
<path d="M3331 1344 c0 -11 3 -14 6 -6 3 7 2 16 -1 19 -3 4 -6 -2 -5 -13z"/>
<path d="M3470 1230 c0 -9 -5 -21 -12 -28 -17 -17 -19 -42 -2 -35 8 3 14 11
14 18 0 8 4 17 10 20 6 3 7 -1 4 -9 -3 -9 -1 -16 5 -16 15 0 14 23 -4 46 -11
15 -14 16 -15 4z"/>
<path d="M1677 863 c-14 -13 -6 -24 15 -21 27 4 36 28 11 28 -11 0 -23 -3 -26
-7z"/>
<path d="M3433 864 c-25 -11 -12 -25 20 -22 17 2 32 8 32 13 0 11 -33 17 -52
9z"/>
</g>
</svg>
