<?xml version="1.0" standalone="no"?>
<!DOCTYPE svg PUBLIC "-//W3C//DTD SVG 20010904//EN"
 "http://www.w3.org/TR/2001/REC-SVG-20010904/DTD/svg10.dtd">
<svg version="1.0" xmlns="http://www.w3.org/2000/svg"
 width="513.000000pt" height="428.000000pt" viewBox="0 0 513.000000 428.000000"
 preserveAspectRatio="xMidYMid meet">

<g transform="translate(0.000000,428.000000) scale(0.100000,-0.100000)"
fill="#000000" stroke="none">
<path d="M2535 3621 c-48 -22 -86 -69 -111 -137 l-17 -51 28 -80 c15 -45 25
-88 22 -97 -17 -43 -137 -75 -287 -76 -116 0 -221 -15 -267 -36 -18 -9 -55
-36 -81 -59 -55 -50 -83 -65 -177 -95 -204 -66 -338 -169 -457 -350 -62 -93
-204 -383 -252 -511 -76 -205 -116 -389 -84 -389 8 0 25 18 38 41 48 79 118
184 143 214 l26 30 38 -37 c41 -40 63 -48 63 -23 0 8 -12 63 -26 122 -14 58
-23 116 -20 128 3 12 65 71 138 132 121 101 188 166 243 238 18 23 32 28 125
41 136 18 194 36 302 90 48 24 93 44 100 44 7 -1 -24 -36 -69 -78 l-81 -77 9
-59 c6 -33 28 -113 49 -177 l40 -118 0 -178 0 -179 -55 -119 c-54 -118 -55
-121 -55 -214 0 -129 12 -165 80 -231 115 -113 209 -142 470 -143 146 -1 191
3 270 21 249 57 277 61 375 60 108 0 110 1 -55 -28 -30 -6 -87 -26 -126 -45
-81 -40 -131 -89 -287 -283 -54 -67 -104 -125 -110 -129 -7 -4 -42 -6 -78 -4
-75 3 -129 -15 -153 -51 -9 -13 -22 -58 -30 -101 -8 -42 -36 -140 -62 -217
-25 -77 -44 -143 -41 -146 2 -3 46 -14 97 -24 64 -13 102 -27 127 -46 51 -39
152 -54 403 -61 l215 -6 110 58 c61 31 124 68 142 81 17 13 36 24 42 24 5 0
12 8 16 18 3 9 49 50 103 90 134 100 270 222 353 317 202 231 338 515 385 803
11 70 18 88 43 111 35 33 44 77 39 201 -2 68 -6 85 -18 85 -10 0 -17 -14 -21
-42 -9 -68 -16 -59 -23 29 -16 196 -107 497 -207 687 -60 114 -65 139 -30 148
16 4 18 9 10 31 -5 15 -20 41 -34 57 l-24 30 -1 -45 c-1 -72 -25 -188 -60
-290 -131 -381 -268 -617 -430 -742 l-74 -57 -103 54 c-138 71 -266 158 -333
224 l-54 54 -47 -51 c-30 -33 -54 -71 -65 -104 -9 -29 -19 -58 -21 -65 -3 -7
10 -14 34 -18 291 -46 624 -198 733 -335 47 -59 60 -100 60 -191 0 -114 -14
-151 -74 -206 -68 -61 -275 -216 -461 -344 -198 -136 -369 -264 -480 -358
-163 -139 -179 -147 -220 -117 -16 12 -17 18 -8 39 22 47 289 268 543 449 331
236 510 368 554 413 35 34 36 38 36 108 -1 126 -34 171 -193 260 -114 64 -273
122 -459 167 -86 21 -161 41 -167 45 -24 14 -1 134 43 230 23 52 188 235 210
235 6 0 29 -29 49 -65 46 -80 96 -120 278 -226 100 -58 138 -75 150 -68 33 17
155 159 194 226 76 128 165 341 221 529 46 155 34 375 -23 432 l-26 26 -17
-21 c-10 -13 -24 -64 -34 -132 -19 -127 -33 -171 -51 -171 -7 0 -36 21 -64 46
-28 25 -55 43 -61 39 -13 -8 29 -117 81 -211 40 -73 40 -73 23 -106 -9 -18
-79 -96 -156 -172 l-141 -139 -22 61 c-25 68 -56 110 -119 158 -42 32 -56 61
-56 118 0 11 -11 44 -24 72 -19 40 -49 72 -155 162 -72 62 -138 126 -146 142
-14 28 -14 34 15 109 34 87 40 91 136 91 l44 0 0 89 c0 72 4 93 19 113 l20 25
-40 104 c-59 158 -113 199 -259 199 -41 0 -80 -7 -105 -19z m-357 -547 c-10
-10 -28 6 -28 24 0 15 1 15 17 -1 9 -9 14 -19 11 -23z m283 -175 c114 -86 169
-162 169 -231 -1 -32 -2 -32 -16 -13 -8 11 -32 47 -54 80 -21 33 -76 100 -122
150 -91 98 -89 99 23 14z m392 -198 c39 -15 33 -31 -11 -31 -41 0 -86 25 -76
42 7 11 41 6 87 -11z m-655 -145 c40 -57 72 -109 72 -115 0 -6 -18 1 -40 15
-66 44 -130 146 -130 207 0 30 17 11 98 -107z m380 -258 c-2 -18 -11 -24 -37
-26 -36 -4 -126 17 -116 26 7 8 75 20 118 21 34 1 38 -1 35 -21z m93 -59 c16
-17 29 -35 29 -39 0 -9 -29 -35 -33 -29 -2 2 -13 17 -25 33 -23 31 -29 66 -11
66 6 0 24 -14 40 -31z m-163 -158 c6 -38 -12 -46 -51 -22 -19 12 -41 28 -48
37 -11 13 -6 15 42 12 48 -3 54 -6 57 -27z m-268 -11 c0 -5 -4 -10 -10 -10 -5
0 -10 5 -10 10 0 6 5 10 10 10 6 0 10 -4 10 -10z m208 -176 c13 -4 22 -14 22
-26 0 -16 -4 -18 -22 -12 -24 7 -68 34 -68 40 0 6 42 4 68 -2z m647 -380 c20
-8 35 -17 32 -20 -6 -6 -77 22 -77 30 0 8 4 8 45 -10z"/>
<path d="M2273 3572 c-39 -4 -50 -17 -55 -62 l-3 -35 -70 -8 c-103 -11 -254
-52 -385 -104 -63 -25 -130 -50 -147 -55 -18 -5 -33 -13 -33 -18 0 -11 -65
-54 -98 -64 -12 -4 -33 -17 -46 -29 -12 -12 -45 -38 -71 -57 -27 -19 -114 -99
-194 -177 -79 -79 -146 -143 -148 -143 -23 0 51 98 85 111 12 5 22 15 22 23 0
7 7 16 15 20 8 3 15 13 15 23 0 14 2 15 9 4 7 -11 10 -11 17 0 4 8 3 14 -5 17
-18 6 17 42 41 42 12 0 18 7 18 24 0 14 -5 28 -10 31 -6 3 -10 1 -10 -4 0 -6
-34 -44 -76 -84 -116 -109 -293 -352 -310 -424 -4 -16 -15 -37 -25 -48 -27
-30 -72 -136 -113 -264 -61 -194 -70 -260 -71 -506 0 -194 3 -232 23 -323 27
-121 81 -281 123 -364 29 -57 43 -70 52 -45 6 16 22 -5 89 -117 86 -145 297
-352 520 -511 60 -42 109 -82 109 -88 1 -7 2 -19 3 -27 2 -23 42 -24 134 -5
79 17 88 17 166 1 103 -22 125 -19 152 21 25 37 99 204 110 247 6 25 5 27 -12
18 -11 -6 -71 -57 -134 -115 -81 -73 -114 -110 -113 -124 2 -17 -2 -19 -25
-16 -58 10 -122 35 -122 49 0 8 39 45 87 82 150 116 290 240 367 325 133 147
222 265 208 279 -4 4 -42 14 -85 23 -161 33 -305 91 -375 150 -17 15 -36 24
-41 20 -15 -9 -159 -243 -221 -360 -54 -100 -143 -250 -184 -312 l-22 -32 -37
30 c-20 17 -37 38 -37 46 0 9 38 77 84 152 46 75 103 170 126 211 24 41 69
116 102 166 32 50 58 98 58 107 0 9 -10 19 -22 22 -13 2 -196 6 -408 7 -390 3
-438 8 -427 41 7 21 86 26 493 26 l401 1 -8 43 c-13 67 -10 186 6 255 8 35 38
113 66 172 64 140 70 172 35 195 -22 14 -62 18 -256 23 -205 4 -232 7 -240 22
-8 15 -4 18 28 24 20 3 109 6 198 6 89 0 189 3 223 6 59 7 61 8 61 35 0 15
-11 58 -24 96 -13 37 -36 117 -52 177 l-27 109 -95 -7 -95 -7 -96 -91 c-53
-50 -131 -118 -174 -151 -47 -37 -80 -70 -84 -86 -3 -13 2 -76 11 -139 16
-108 16 -115 -1 -150 -21 -43 -49 -50 -121 -32 -53 13 -59 9 -100 -63 -17 -29
-47 -72 -68 -96 -49 -57 -151 -132 -169 -125 -47 18 -45 217 4 405 37 144 71
230 167 422 168 337 259 458 423 565 91 60 263 142 297 142 22 0 88 43 113 74
19 23 96 61 141 70 19 4 117 13 218 20 101 8 185 16 187 18 3 2 0 20 -5 39 -6
19 -10 76 -8 127 1 51 -2 96 -8 100 -5 4 -23 6 -41 4z m-1276 -807 c-7 -13
-14 -20 -15 -14 -5 14 6 39 17 39 5 0 4 -11 -2 -25z m-62 -94 c3 -5 1 -12 -5
-16 -5 -3 -10 1 -10 9 0 18 6 21 15 7z m-25 -59 c0 -5 -9 -17 -20 -27 -22 -20
-26 -14 -10 16 11 19 30 26 30 11z m854 -324 c8 -9 12 -18 9 -22 -8 -8 -271
-8 -301 0 -13 4 -21 12 -19 18 6 18 64 25 184 22 83 -3 116 -7 127 -18z m37
-395 c25 -25 -38 -35 -170 -28 -136 7 -181 13 -181 26 0 14 42 17 192 16 100
-1 151 -6 159 -14z m-121 -163 c31 -20 -9 -25 -206 -28 -176 -3 -204 -1 -204
12 0 8 -8 17 -17 19 -10 3 79 5 197 6 118 0 222 -3 230 -9z m-15 -200 l0 -25
-120 1 c-114 1 -215 17 -200 32 10 10 127 19 230 18 89 -1 90 -1 90 -26z
m-426 7 c15 -19 4 -27 -36 -27 -35 0 -41 8 -21 28 16 16 43 15 57 -1z m-374
-17 c3 -5 -1 -10 -9 -10 -9 0 -16 5 -16 10 0 6 4 10 9 10 6 0 13 -4 16 -10z
m173 -366 c38 -8 24 -38 -19 -42 -38 -3 -69 17 -69 43 0 14 14 14 88 -1z m552
-2 c0 -38 -18 -42 -205 -42 -187 0 -225 4 -225 24 0 32 24 36 227 36 189 0
203 -1 203 -18z m-127 -188 c7 -8 -11 -46 -27 -56 -15 -10 -248 -9 -309 1 -42
7 -76 30 -77 54 0 9 404 10 413 1z"/>
<path d="M2990 3485 c-11 -13 -8 -28 14 -83 29 -76 34 -127 11 -136 -12 -4
-15 -23 -15 -81 0 -102 -24 -152 -77 -160 -67 -10 -88 -20 -101 -47 -16 -34
-7 -49 61 -103 98 -77 189 -169 212 -215 13 -25 31 -73 41 -105 14 -50 27 -70
78 -119 l61 -58 68 73 c79 84 78 79 29 219 -17 47 -36 114 -43 149 -15 80 -8
87 97 96 l74 7 6 37 c3 20 12 64 20 99 18 80 18 92 -1 92 -8 0 -15 7 -15 15 0
8 -4 15 -10 15 -13 0 -13 -16 0 -41 17 -31 -10 -24 -71 19 -30 21 -62 41 -72
45 -13 5 -16 13 -12 28 6 17 4 20 -12 15 -11 -4 -27 1 -39 11 -35 32 -64 45
-64 31 0 -7 -12 -1 -25 15 -14 16 -34 27 -49 27 -20 0 -27 6 -32 28 -16 76
-37 114 -70 128 -42 18 -49 18 -64 -1z"/>
<path d="M1297 3154 c-8 -8 1 -24 14 -24 5 0 9 7 9 15 0 15 -12 20 -23 9z"/>
<path d="M2517 1078 c-18 -7 -46 -38 -82 -91 -30 -44 -53 -83 -50 -85 12 -12
52 19 119 92 42 46 76 87 76 90 0 9 -31 6 -63 -6z"/>
</g>
</svg>
